# xmcd
#
# Track frame offsets:
#	150
#	16022
#	28076
#	53325
#	65313
#	79362
#	96670
#	111513
#	127457
#	140122
#
# Disc length: 2040 seconds
# Revision: 1
# Processed by: cddbd v1.5.2PL0 Copyright (c) Steve Scherf et al.
# Submitted via: dBpowerAMP V12.0
#
DISCID=9207f60a
DTITLE=DominionValleySingers,Stuart,VA - Lord Thank You Again
DYEAR=2003
DGENRE=Bluegrass
TTITLE0=I'm Ready To Go
TTITLE1=Burdens To Lay At His Feet
TTITLE2=Home
TTITLE3=Shinny Wheel Chair
TTITLE4=Our Family Gathering
TTITLE5=Trust The Lord
TTITLE6=Lord Thank You Again
TTITLE7=That Glorous Day
TTITLE8=Thank God For The Blood
TTITLE9=Wooden Cross
EXTD=
EXTT0=
EXTT1=
EXTT2=
EXTT3=
EXTT4=
EXTT5=
EXTT6=
EXTT7=
EXTT8=
EXTT9=
PLAYORDER=
